<svg width="131" height="40" viewBox="0 0 131 40" fill="none" xmlns="http://www.w3.org/2000/svg">
<g clip-path="url(#clip0_368_2711)">
<path d="M59.2022 16.3678C59.2022 16.8542 59.1269 17.3439 58.9751 17.8369C58.8234 18.331 58.5723 18.8294 58.2185 19.3322C58.9064 19.9013 59.4108 20.551 59.7297 21.279C60.0496 22.0071 60.209 22.7405 60.209 23.4773C60.209 24.3153 60.0157 25.1194 59.6303 25.8888V25.8637C59.211 26.7017 58.6104 27.3928 57.8309 27.9369C57.0513 28.481 56.0817 28.753 54.9254 28.753H46.7734V11.2422H52.5712L54.4614 11.2672C55.1667 11.3173 55.8098 11.4936 56.3896 11.795C56.9694 12.0965 57.4651 12.4817 57.8768 12.9507C58.2884 13.4198 58.6116 13.9476 58.8475 14.533C59.0822 15.1196 59.2001 15.7312 59.2001 16.3667L59.2022 16.3678ZM50.4301 18.1765H54.0857C54.4886 18.1765 54.8337 18.0045 55.1197 17.6617C55.4058 17.3189 55.5478 16.8956 55.5478 16.3929C55.5478 15.8901 55.4047 15.4798 55.1197 15.112C54.8337 14.7441 54.4898 14.5591 54.0857 14.5591H50.4301V18.1765ZM54.9418 25.4622C55.396 25.4622 55.7771 25.2653 56.0882 24.8724C56.3994 24.4785 56.5544 24.0062 56.5544 23.4533C56.5544 22.9005 56.3994 22.4522 56.0882 22.0593C55.7771 21.6664 55.3949 21.4695 54.9418 21.4695H50.4301V25.4644H54.9418V25.4622Z" fill="#8E8F91"/>
<path d="M75.6617 11.2461C76.8551 11.2461 77.9721 11.4768 79.0138 11.9371C80.0554 12.3986 80.9628 13.0221 81.7359 13.8089C82.5089 14.5967 83.1225 15.5218 83.5756 16.5849C84.0298 17.6492 84.2559 18.7832 84.2559 19.989C84.2559 21.1948 84.0288 22.3341 83.5756 23.4061C83.1214 24.478 82.5078 25.4074 81.7359 26.1952C80.9628 26.9831 80.0554 27.6067 79.0138 28.067C77.9721 28.5273 76.854 28.758 75.6617 28.758C74.4694 28.758 73.3764 28.5284 72.3347 28.067C71.2931 27.6067 70.3813 26.9831 69.5996 26.1952C68.8178 25.4084 68.2009 24.479 67.7467 23.4061C67.2925 22.3341 67.0664 21.1948 67.0664 19.989C67.0664 18.7832 67.2935 17.6482 67.7467 16.5849C68.2009 15.5218 68.8178 14.5967 69.5996 13.8089C70.3813 13.0221 71.292 12.3986 72.3347 11.9371C73.3764 11.4768 74.4857 11.2461 75.6617 11.2461ZM75.6486 25.465C76.3398 25.465 76.9872 25.3224 77.5943 25.0384C78.2015 24.7533 78.7266 24.3604 79.1742 23.8576C79.6208 23.3549 79.9703 22.7738 80.2236 22.1121C80.4769 21.4504 80.6024 20.7431 80.6024 19.989C80.6024 19.2348 80.4758 18.5275 80.2236 17.8659C79.9703 17.2042 79.6208 16.6264 79.1742 16.1323C78.7276 15.6382 78.2015 15.2486 77.5943 14.9635C76.9872 14.6783 76.3398 14.5369 75.6486 14.5369C74.9575 14.5369 74.334 14.6795 73.728 14.9635C73.1208 15.2486 72.5957 15.6382 72.1481 16.1323C71.7015 16.6264 71.352 17.2042 71.0987 17.8659C70.8454 18.5275 70.7199 19.2348 70.7199 19.989C70.7199 20.7431 70.8454 21.4504 71.0987 22.1121C71.352 22.7738 71.7015 23.356 72.1481 23.8576C72.5946 24.3604 73.1208 24.7544 73.728 25.0384C74.3351 25.3236 74.9749 25.465 75.6486 25.465Z" fill="#8E8F91"/>
<path d="M103.465 22.4979V11.2422H107.121V28.753H103.635L95.5755 17.5486V28.753H91.9199V11.2422H95.3736L103.465 22.4979Z" fill="#8E8F91"/>
<path d="M130.311 11.2461L122.875 20.0391L130.311 28.7569H125.723L120.58 22.727L119.623 23.8827V28.7569H115.967V11.2461H119.623V18.4817L125.723 11.2461H130.311Z" fill="#8E8F91"/>
<path d="M13.5226 14.2544C14.7487 15.4804 14.0676 16.434 13.5226 16.7065C12.2965 17.1152 11.8879 18.3412 11.0705 16.2978C10.2532 14.2544 10.6619 12.2109 11.4792 12.2109C12.2966 12.2109 11.8879 12.6196 13.5226 14.2544Z" fill="#8E8F91"/>
<path d="M18.0185 13.4369C17.231 11.8621 17.4736 10.0312 17.6098 9.35009C17.6098 9.21384 17.6915 8.94141 18.0185 8.94141C18.4272 8.94141 19.6532 10.9848 20.0619 12.2109C20.4706 13.4369 18.4272 14.2543 18.0185 13.4369Z" fill="#8E8F91"/>
<path d="M14.1891 21.4107C14.8026 21.6975 15.6098 21.2669 15.9921 20.449C16.3744 19.6311 16.187 18.7356 15.5736 18.4489C14.9602 18.1621 14.153 18.5927 13.7707 19.4106C13.3883 20.2285 13.5757 21.124 14.1891 21.4107Z" fill="#8E8F91"/>
<path d="M24.1205 16.6796C24.1477 16.0957 23.5386 15.5929 22.7601 15.5567C21.9816 15.5204 21.3284 15.9644 21.3012 16.5482C21.274 17.1321 21.8831 17.6349 22.6616 17.6711C23.4401 17.7074 24.0933 17.2634 24.1205 16.6796Z" fill="#8E8F91"/>
<path fill-rule="evenodd" clip-rule="evenodd" d="M28.5219 21.1992C30.1564 21.1992 30.1562 21.608 30.5649 22.834C30.9736 24.06 30.5653 28.9644 27.7045 30.1904C24.8437 31.4164 19.5306 31.0078 17.0785 30.1904C15.117 29.5365 14.0815 28.0102 13.809 27.3291C12.9917 25.6943 12.1747 22.5072 15.4438 22.834C19.5305 23.2427 19.5309 24.8773 20.3481 24.4688C24.1609 22.5622 27.2959 21.3355 28.5219 21.1992ZM28.6078 23.3477C28.2806 22.6942 27.1097 22.8033 26.5649 22.9395C25.8838 22.9395 24.5219 23.2664 24.5219 24.5742C24.5222 26.2088 27.3828 26.6177 27.7914 26.209C28.2002 25.8001 29.0165 24.1649 28.6078 23.3477Z" fill="#8E8F91"/>
<path d="M24.9438 20.3903C24.8332 20.3977 24.7264 20.4127 24.6251 20.4323C24.7095 20.4762 24.7629 20.5351 24.7686 20.6033C24.7808 20.763 24.5277 20.9106 24.2025 20.933C24.0431 20.9442 23.8969 20.9237 23.7863 20.8807C23.7573 20.9349 23.7422 20.991 23.747 21.047C23.7713 21.3618 24.3477 21.5776 25.0338 21.53C25.7198 21.4814 26.2551 21.1872 26.2307 20.8723C26.2063 20.5575 25.6299 20.3418 24.9438 20.3894V20.3903Z" fill="#8E8F91"/>
<path d="M19.9965 21.6443C19.886 21.6517 19.7791 21.6667 19.6779 21.6863C19.7623 21.7302 19.8157 21.789 19.8213 21.8572C19.8335 22.017 19.5804 22.1645 19.2552 22.187C19.0959 22.1982 18.9497 22.1776 18.8391 22.1347C18.81 22.1888 18.795 22.2449 18.7997 22.301C18.824 22.6157 19.4005 22.8315 20.0865 22.7839C20.7726 22.7353 21.3078 22.4411 21.2834 22.1263C21.259 21.8114 20.6826 21.5957 19.9965 21.6433V21.6443Z" fill="#8E8F91"/>
<path d="M22.3724 2.92364C22.3515 3.29036 22.4154 3.8238 22.5493 4.36247C22.6842 4.9049 22.8798 5.40892 23.096 5.72886C23.1557 5.81723 23.2082 5.87716 23.2484 5.91665C23.3001 5.86777 23.3756 5.78385 23.4634 5.6411C23.6084 5.40566 23.7657 5.05836 23.9266 4.56902C24.4487 2.98081 24.5902 1.93604 24.5682 1.28527C24.5572 0.959644 24.5056 0.747022 24.4516 0.619815C24.4288 0.566072 24.4085 0.535658 24.3975 0.52079L24.2894 0.47304L24.2145 0.346437C24.1625 0.257794 23.7798 -0.147107 22.7088 0.0566064C22.6833 0.0614534 22.5921 0.0874538 22.4996 0.285314C22.4094 0.478254 22.3599 0.752261 22.3412 1.07978C22.3229 1.40189 22.3351 1.74626 22.3508 2.07092C22.3657 2.38432 22.3852 2.69867 22.3724 2.92364Z" fill="#8E8F91"/>
<path d="M18.3908 3.21875C19.5295 3.21875 20.6436 3.32465 21.7249 3.52287C21.7456 3.78368 21.7625 3.99521 21.7625 4.14867C21.7625 4.5982 21.8452 5.1926 21.9772 5.76026C22.1084 6.3245 22.2987 6.90558 22.5319 7.31361C22.6447 7.51092 22.7948 7.71739 22.9949 7.8404C23.1018 7.90603 23.2348 7.95483 23.386 7.95213C23.5392 7.94936 23.6761 7.89467 23.7899 7.81245C24.0005 7.66033 24.1515 7.40196 24.2712 7.10608C24.3963 6.79711 24.5105 6.38612 24.6152 5.86243C24.7245 5.31611 24.8038 4.82667 24.8619 4.38973C25.6475 4.68522 26.4074 5.03326 27.1376 5.429C27.0202 5.81668 26.9239 6.29161 26.8646 6.76123C26.7921 7.33592 26.769 7.94682 26.8462 8.41035C26.8836 8.63447 26.9527 8.88009 27.0977 9.06482C27.1752 9.16348 27.2838 9.25518 27.4266 9.30513C27.5712 9.35556 27.7184 9.35237 27.8536 9.31469C28.1038 9.24497 28.3348 9.05493 28.5496 8.81904C28.774 8.57252 29.0241 8.22669 29.304 7.77174C29.4467 7.53969 29.576 7.31663 29.6975 7.10526C30.36 7.62249 30.9863 8.18394 31.5717 8.78544C31.4311 8.98047 31.2915 9.18841 31.163 9.4001C30.8625 9.89527 30.5926 10.4436 30.4741 10.8983C30.4168 11.1184 30.3795 11.3714 30.4366 11.5992C30.4672 11.7208 30.5286 11.8482 30.6386 11.952C30.7501 12.057 30.886 12.114 31.0249 12.1348C31.2819 12.1732 31.5706 12.0935 31.863 11.9656C32.1684 11.8319 32.5373 11.618 32.9781 11.3166C33.1315 11.2118 33.2776 11.1086 33.418 11.0085C35.5359 14.0047 36.7816 17.6613 36.7816 21.6096C36.7816 31.7665 28.5478 40.0004 18.3908 40.0004C8.23385 40.0004 0 31.7665 0 21.6096C0 11.4526 8.23385 3.21875 18.3908 3.21875ZM21.2516 12.6177C20.4342 10.5743 18.4725 6.73295 17.1648 7.71346C15.857 8.69431 16.3474 12.2089 16.7561 13.8437L15.1213 14.6619C14.1677 12.7548 11.8519 9.43076 10.2171 11.3924C8.17402 13.8445 11.0345 17.1141 10.2171 18.7488C9.39974 20.3836 8.17369 23.2445 8.17369 27.7398C8.17394 31.3359 12.2606 31.9629 14.304 31.8267C14.9853 32.9167 17.165 35.0144 20.4342 34.6875C23.4385 34.387 23.5724 32.9826 24.731 31.2855C25.8882 31.1731 26.9803 30.9473 27.8656 30.5679C29.4719 29.8794 30.3369 28.1904 30.7559 26.6191C30.9686 25.8217 31.0749 25.0253 31.1015 24.3459C31.1277 23.6791 31.0788 23.0835 30.953 22.7063C30.8568 22.4176 30.7716 22.1371 30.6833 21.9129C30.5922 21.6817 30.4779 21.4552 30.2921 21.2695C30.0721 21.0495 29.7912 20.9271 29.438 20.8608C29.4335 20.838 29.4299 20.8151 29.4253 20.7922C28.6079 16.7053 25.3384 13.844 24.1124 13.0272C23.1315 12.3738 21.7965 12.4819 21.2516 12.6177ZM29.6009 21.7644C29.6487 21.7908 29.685 21.8182 29.7142 21.8474C29.7838 21.917 29.8484 22.0229 29.9234 22.213C30.001 22.4102 30.0691 22.6407 30.1772 22.9649C30.2558 23.2007 30.3091 23.6779 30.2842 24.3139C30.2597 24.9371 30.1617 25.6733 29.9656 26.4084C29.5673 27.9023 28.7975 29.2784 27.5431 29.8159C26.95 30.0701 26.2361 30.2514 25.455 30.3715C25.7582 30.0428 26.1194 29.7084 26.5645 29.3746C29.564 27.1252 30.1548 25.2195 29.6009 21.7644ZM30.4486 12.1635C29.9643 11.6903 29.1882 11.6992 28.7149 12.1835C28.2418 12.6678 28.2506 13.444 28.7349 13.9172C29.2191 14.3902 29.9953 14.3813 30.4686 13.8973C30.9418 13.413 30.9327 12.6368 30.4486 12.1635ZM29.2992 12.7542C29.4569 12.5928 29.7156 12.5901 29.877 12.7478C30.0385 12.9056 30.0419 13.1643 29.8842 13.3257C29.7265 13.4871 29.4678 13.4898 29.3064 13.3321C29.1449 13.1744 29.1414 12.9156 29.2992 12.7542ZM27.3388 9.57494C26.7036 9.34011 25.9979 9.66452 25.7631 10.2997C25.5286 10.9347 25.8536 11.6399 26.4886 11.8745C27.1237 12.1091 27.8288 11.7848 28.0636 11.1498C28.2983 10.5148 27.9737 9.80977 27.3388 9.57494ZM32.1392 9.39847C32.4137 9.70719 32.6792 10.024 32.9326 10.3508C32.8002 10.4452 32.6622 10.5435 32.5167 10.6429C32.0978 10.9292 31.7754 11.1116 31.535 11.2169C31.3892 11.2806 31.2892 11.3069 31.2269 11.3182C31.23 11.2694 31.2406 11.1988 31.2652 11.1043C31.3544 10.762 31.578 10.2924 31.8622 9.82399C31.9515 9.67678 32.0457 9.53415 32.1392 9.39847ZM26.5302 10.5831C26.6085 10.3714 26.8437 10.2629 27.0554 10.3412C27.2669 10.4195 27.3747 10.6548 27.2965 10.8664C27.2181 11.0778 26.9836 11.1862 26.772 11.1082C26.5604 11.03 26.452 10.7947 26.5302 10.5831ZM23.3972 8.2347C22.7201 8.2347 22.1711 8.78364 22.1711 9.46075C22.1711 10.1379 22.7201 10.6868 23.3972 10.6868C24.0743 10.6868 24.6232 10.1379 24.6232 9.46075C24.6232 8.78364 24.0743 8.2347 23.3972 8.2347ZM23.3972 9.05207C23.6229 9.05207 23.8059 9.23508 23.8059 9.46075C23.8059 9.68651 23.6229 9.86944 23.3972 9.86944C23.1715 9.86944 22.9885 9.68651 22.9885 9.46075C22.9885 9.23508 23.1715 9.05207 23.3972 9.05207ZM22.5575 3.69368C23.0718 3.81291 23.5773 3.95536 24.0741 4.11674C24.0183 4.57188 23.9349 5.09789 23.8139 5.70278C23.7143 6.20044 23.6113 6.55623 23.5129 6.79956C23.4533 6.94702 23.4003 7.03513 23.3637 7.08687C23.3319 7.04976 23.29 6.99287 23.2416 6.90811C23.0661 6.60102 22.8979 6.10888 22.7738 5.57507C22.6505 5.04499 22.5799 4.51597 22.5798 4.14867C22.5798 4.02005 22.5699 3.86287 22.5575 3.69368Z" fill="#8E8F91"/>
<path d="M28.1382 4.81831C27.9928 5.20848 27.8586 5.79828 27.7798 6.41022C27.7005 7.02639 27.6843 7.61563 27.7492 8.01124C27.7672 8.12052 27.7891 8.19743 27.8082 8.2495C27.8676 8.20904 27.9587 8.13638 28.0805 8.00331C28.2813 7.78385 28.5313 7.44668 28.8341 6.9574C29.8164 5.36937 30.2974 4.27707 30.5069 3.57073C30.6118 3.2173 30.644 2.97607 30.6442 2.82629C30.6444 2.763 30.6384 2.72546 30.6346 2.70686L30.5629 2.62992L30.546 2.47587C30.5344 2.36809 30.363 1.84165 29.4157 1.80864C29.3932 1.80787 29.3095 1.81439 29.1646 2.00573C29.0234 2.19234 28.8871 2.4759 28.7573 2.82438C28.6297 3.16708 28.5194 3.54102 28.4186 3.89448C28.3213 4.23567 28.2273 4.57895 28.1382 4.81831Z" fill="#8E8F91"/>
<path d="M32.6098 8.18991C32.3263 8.52569 31.986 9.06662 31.6954 9.65153C31.4029 10.2404 31.1848 10.8269 31.1166 11.2503C31.0978 11.3673 31.0942 11.4533 31.0962 11.513C31.1714 11.4955 31.2903 11.458 31.4617 11.3717C31.7443 11.2293 32.118 10.9878 32.598 10.6137C34.156 9.39962 35.0264 8.4885 35.4843 7.8597C35.7134 7.54509 35.8292 7.31492 35.8806 7.16436C35.9024 7.10069 35.9091 7.06064 35.9115 7.04045L35.8637 6.93501L35.8988 6.77341C35.9236 6.66045 35.9264 6.06391 34.9587 5.66081C34.9358 5.65127 34.847 5.62512 34.6319 5.76106C34.4221 5.89363 34.1844 6.12572 33.9311 6.42562C33.6821 6.72053 33.4403 7.05369 33.2154 7.36993C32.9982 7.67522 32.7837 7.98386 32.6098 8.18991Z" fill="#8E8F91"/>
</g>
<defs>
<clipPath id="clip0_368_2711">
<rect width="131" height="40" fill="white"/>
</clipPath>
</defs>
</svg>
