<svg class="coin-svg" width="473" height="423" viewBox="0 0 473 423" fill="none" xmlns="http://www.w3.org/2000/svg">
    <g filter="url(#filter0_f_3059_2497)">
        <path d="M468.299 332.364L390.919 415.285C389.242 417.082 387.214 418.516 384.961 419.499C382.707 420.482 380.276 420.993 377.817 421H10.988C9.24227 420.991 7.53681 420.475 6.0789 419.515C4.62098 418.555 3.47337 417.193 2.77553 415.593C2.07768 413.994 1.85964 412.226 2.14789 410.505C2.43615 408.785 3.2183 407.184 4.39929 405.899L81.6843 322.978C83.3614 321.181 85.3893 319.746 87.6428 318.763C89.8962 317.781 92.3274 317.27 94.7861 317.263H461.616C463.38 317.228 465.117 317.715 466.605 318.663C468.094 319.611 469.27 320.977 469.984 322.591C470.698 324.204 470.919 325.993 470.619 327.732C470.319 329.471 469.512 331.082 468.299 332.364ZM390.919 165.328C389.235 163.54 387.206 162.112 384.954 161.129C382.702 160.147 380.274 159.632 377.817 159.613H10.988C9.23859 159.614 7.52743 160.125 6.06417 161.084C4.6009 162.042 3.44907 163.406 2.74976 165.009C2.05045 166.612 1.83404 168.384 2.12702 170.107C2.42001 171.831 3.20968 173.432 4.39929 174.714L81.6843 257.693C83.3683 259.481 85.3976 260.909 87.6495 261.891C89.9014 262.874 92.3291 263.389 94.7861 263.407H461.616C463.358 263.391 465.058 262.87 466.511 261.907C467.963 260.944 469.105 259.581 469.798 257.984C470.491 256.386 470.706 254.621 470.416 252.904C470.127 251.186 469.345 249.589 468.166 248.307L390.919 165.328ZM10.988 105.758H377.817C380.276 105.751 382.707 105.24 384.961 104.257C387.214 103.274 389.242 101.84 390.919 100.043L468.299 17.1026C469.199 16.1407 469.877 14.9928 470.284 13.7402C470.691 12.4876 470.818 11.1608 470.655 9.85378C470.493 8.54675 470.045 7.29139 469.343 6.17654C468.642 5.06168 467.703 4.11457 466.595 3.40221C465.11 2.45293 463.377 1.96556 461.616 2.00189H94.7861C92.3274 2.00886 89.8962 2.51959 87.6428 3.50252C85.3893 4.48544 83.3614 5.91971 81.6843 7.71671L4.39929 90.6572C3.20968 91.9393 2.42001 93.5402 2.12702 95.2641C1.83404 96.9879 2.05045 98.7597 2.74976 100.362C3.44907 101.965 4.6009 103.329 6.06417 104.288C7.52743 105.246 9.23859 105.757 10.988 105.758Z" fill="url(#paint0_linear_3059_2497)" fill-opacity="0.11"/>
    </g>
    <circle cx="236.202" cy="211.432" r="170.432" fill="url(#paint1_linear_3059_2497)"/>
    <circle cx="236.202" cy="211.432" r="144.273" fill="rgb(148, 151, 150)" stroke="rgb(198, 201, 200)" stroke-width="4"/>
    <mask id="mask0_3059_2497" style="mask-type:alpha" maskUnits="userSpaceOnUse" x="89" y="65" width="294" height="293">
        <circle cx="236.202" cy="211.432" r="144.273" fill="rgb(148, 151, 150)" stroke="rgb(198, 201, 200)" stroke-width="4"/>
    </mask>
    <g mask="url(#mask0_3059_2497)">
        <path d="M338.587 -5.56128L389.837 45.688L84.5149 351.01L33.2656 299.76L338.587 -5.56128Z" fill="white" fill-opacity="0.28"/>
        <path d="M401.64 57.4909L439.222 95.0737L133.901 400.395L96.3178 362.813L401.64 57.4909Z" fill="white" fill-opacity="0.28"/>
    </g>
    <path d="M54 282.906C40.8515 285.191 30.0236 287.707 21.9121 290.376C16.1811 292.262 12.1023 294.129 9.55566 295.861C7.58734 297.2 7.12785 298.035 7.02539 298.277C7.12776 298.519 7.58712 299.354 9.55566 300.693C12.1022 302.426 16.1811 304.293 21.9121 306.179C33.3068 309.928 50.0611 313.38 71.0801 316.306C113.044 322.146 171.177 325.777 235.5 325.777C299.823 325.777 357.956 322.146 399.92 316.306C420.939 313.38 437.693 309.928 449.088 306.179C454.819 304.293 458.898 302.426 461.444 300.693C463.412 299.355 463.871 298.52 463.974 298.277C463.871 298.035 463.412 297.2 461.444 295.861C458.898 294.129 454.819 292.262 449.088 290.376C441.183 287.775 430.698 285.317 418 283.079V278.005C449.917 283.563 469 290.609 469 298.277C469 316.227 364.458 330.777 235.5 330.777C106.542 330.777 2 316.227 2 298.277C2.0002 290.529 21.4824 283.417 54 277.832V282.906Z" fill="rgb(198, 201, 200)"/>
    <defs>
        <filter id="filter0_f_3059_2497" x="0.1" y="0.1" width="472.55" height="422.8" filterUnits="userSpaceOnUse" color-interpolation-filters="sRGB">
            <feFlood flood-opacity="0" result="BackgroundImageFix"/>
            <feBlend mode="normal" in="SourceGraphic" in2="BackgroundImageFix" result="shape"/>
            <feGaussianBlur stdDeviation="0.95" result="effect1_foregroundBlur_3059_2497"/>
        </filter>
        <linearGradient id="paint0_linear_3059_2497" x1="215" y1="493" x2="220.5" y2="-78.5" gradientUnits="userSpaceOnUse">
            <stop offset="0.106454" stop-color="#999999" stop-opacity="0.01"/>
            <stop offset="0.279917" stop-color="white"/>
            <stop offset="0.647029" stop-color="white"/>
            <stop offset="0.868737" stop-color="#999999" stop-opacity="0.01"/>
        </linearGradient>
        <linearGradient id="paint1_linear_3059_2497" x1="236.202" y1="41" x2="236.202" y2="381.864" gradientUnits="userSpaceOnUse">
            <stop stop-color="rgb(148, 151, 150)"/>
            <stop offset="1" stop-color="rgb(118, 121, 120)"/>
        </linearGradient>

    </defs>
</svg>
