<svg width="56" height="40" viewBox="0 0 56 40" fill="none" xmlns="http://www.w3.org/2000/svg">
<mask id="mask0_368_2712" style="mask-type:luminance" maskUnits="userSpaceOnUse" x="0" y="8" width="56" height="24">
<path d="M55.5 8.89844H0V31.0984H55.5V8.89844Z" fill="white"/>
</mask>
<g mask="url(#mask0_368_2712)">
<path d="M14.4304 20.7419C14.4304 23.6754 13.4411 26.1362 11.4625 28.1189C9.48384 30.1071 7.07308 31.0984 4.2302 31.0984H0V26.8452H4.2302C5.91319 26.8452 7.32893 26.263 8.47745 25.0931C9.62601 23.9289 10.2002 22.4766 10.2002 20.7477L10.1661 8.89844H14.4304V20.7419Z" fill="#8E8F91"/>
<path d="M17.4716 9.09766H21.7018L21.6336 13.2818H17.4375L17.4716 9.09766ZM17.4716 14.9762H21.7018V31.0902H17.4375L17.4716 14.9762Z" fill="#8E8F91"/>
<path d="M29.0826 13.4927H36.3489V17.7805H29.0144V23.7166C29.0144 24.5984 29.2873 25.3361 29.8388 25.9355C30.3903 26.5349 31.0783 26.8404 31.9027 26.8404H36.3092V31.0936H31.9425C29.941 31.0936 28.2524 30.3732 26.8765 28.9266C25.5005 27.4801 24.8125 25.7223 24.8125 23.6418V8.95703H29.0086L29.0769 13.4869L29.0826 13.4927Z" fill="#8E8F91"/>
<path d="M52.9756 28.5664C51.2925 30.2551 49.2343 31.0964 46.8008 31.0964C44.3673 31.0964 42.2806 30.2493 40.6091 28.5491C38.9374 26.8489 38.1016 24.7684 38.1016 22.296C38.1016 19.8235 38.9431 17.7373 40.626 16.0256C42.3091 14.3139 44.3673 13.4609 46.8008 13.4609C49.2343 13.4609 51.2925 14.3139 52.9756 16.0256C54.6586 17.7373 55.5 19.8235 55.5 22.296C55.5 24.7684 54.6586 26.8836 52.9756 28.5664ZM49.9223 19.0167C49.0922 18.1695 48.0517 17.7488 46.8008 17.7488C45.55 17.7488 44.4924 18.1868 43.6282 19.0686C42.7639 19.9503 42.3318 21.0223 42.3318 22.296C42.3318 23.5697 42.7639 24.6473 43.6282 25.5234C44.4924 26.4052 45.55 26.8432 46.8008 26.8432C48.0517 26.8432 49.1377 26.411 49.9905 25.5407C50.8434 24.6705 51.2698 23.5928 51.2698 22.296C51.2698 21.0685 50.7524 19.8639 49.9223 19.0167Z" fill="#8E8F91"/>
</g>
</svg>
