<svg width="162" height="40" viewBox="0 0 162 40" fill="none" xmlns="http://www.w3.org/2000/svg">
<g clip-path="url(#clip0_368_2730)">
<mask id="mask0_368_2730" style="mask-type:luminance" maskUnits="userSpaceOnUse" x="0" y="1" width="197" height="38">
<path d="M197 1.5H0V38.5H197V1.5Z" fill="white"/>
</mask>
<g mask="url(#mask0_368_2730)">
<path d="M43.4651 12.828C43.4651 8.47859 39.749 5.44141 34.4297 5.44141C30.1046 5.44141 27.1236 7.56819 23.6714 10.0311C23.0939 10.4427 22.4968 10.8693 21.8813 11.2938C20.1053 12.5178 18.2597 13.7115 16.5759 14.7663C16.4077 14.8719 16.1982 14.8859 16.018 14.804C14.6783 14.1974 12.0251 13.2256 8.76293 13.2256C1.51984 13.2256 0 17.1872 0 20.511C0 23.1505 1.59257 25.3484 4.60401 26.8665C5.53003 27.333 6.4517 27.6649 7.20292 27.8911C7.787 28.0678 8.25054 28.5085 8.44701 29.0817C8.64349 29.6549 8.87584 30.2689 9.16352 30.9003C9.48164 31.5985 9.86153 32.3645 10.2904 33.1779C10.7496 34.0463 11.6582 34.5548 12.5972 34.5548C12.936 34.5548 13.279 34.4891 13.6058 34.3501C18.4194 32.3062 25.9653 29.7604 34.5827 29.2368C36.0797 29.1451 37.2152 27.9073 37.1686 26.4172C37.1469 25.7202 37.111 25.0705 37.0633 24.4876C37.0275 24.0502 36.9797 23.6182 36.9298 23.2195C36.8353 22.4632 37.1371 21.7123 37.732 21.2307C38.327 20.7491 39.0098 20.163 39.7046 19.4863C42.2003 17.0569 43.4662 14.8169 43.4662 12.828H43.4651ZM13.8251 31.6954C13.5939 31.7869 13.3463 31.8398 13.0978 31.8215C12.4931 31.7762 11.9426 31.4024 11.6951 30.8227C11.5638 30.5146 11.4399 30.2172 11.3108 29.936C11.0383 29.3381 10.8114 28.7251 10.6378 28.2057C10.4706 27.7047 10.6975 27.1573 11.1741 26.9247C12.238 26.4043 13.9684 25.773 15.6424 25.3334C15.804 25.2914 15.9452 25.1868 16.0202 25.0393C16.6335 23.8369 15.6489 22.8973 14.7131 23.156C14.6534 23.1721 13.2291 23.5643 11.745 24.131C10.8646 24.4671 10.1579 24.785 9.60203 25.1018C8.79118 25.564 7.8206 25.6609 6.94455 25.3344C4.93295 24.5846 2.35682 23.115 2.35682 20.5132C2.35682 18.2118 3.08417 15.5711 8.7586 15.5711C10.1612 15.5711 11.4411 15.7844 12.5126 16.0613C13.0282 16.1949 13.1259 16.8801 12.6678 17.1527C11.2121 18.0201 10.2741 18.5534 10.2502 18.5674C9.68465 18.8884 9.48817 19.6049 9.81164 20.1662C10.1351 20.7275 10.857 20.9226 11.4226 20.6015C11.4606 20.5799 13.8326 19.23 16.9451 17.3024C16.9613 17.2928 16.9776 17.282 16.9939 17.2723C18.9165 16.0818 21.116 14.6726 23.222 13.2224C23.8538 12.7871 24.4595 12.3551 25.0446 11.9381C28.2939 9.62063 30.8602 7.78906 34.4253 7.78906C38.4182 7.78906 41.1007 9.81564 41.1007 12.8323C41.1007 15.0216 38.1684 17.8606 36.1383 19.4971C35.5825 19.9453 34.8639 20.1371 34.1529 20.0466C33.9488 20.0208 33.7436 19.9981 33.5384 19.9788C33.1052 19.9389 32.8555 19.4712 33.0651 19.0921C34.079 17.2637 34.5046 16.1378 34.5285 16.0743C34.7543 15.4677 34.4438 14.7954 33.8326 14.5702C33.2224 14.3439 32.5429 14.6531 32.315 15.2586C32.3084 15.2769 31.6429 17.0202 29.9765 19.6932C29.8757 19.8548 29.7019 19.9593 29.5098 19.9743C29.0962 20.0068 28.7781 19.6199 28.8888 19.2245C29.1798 18.187 29.2297 17.7119 29.2361 17.6354C29.2915 16.9911 28.8118 16.4158 28.1614 16.3608C27.5091 16.307 26.9402 16.7756 26.8848 17.4209C26.8848 17.4296 26.7925 18.1999 26.1401 20.1027C26.0694 20.3095 25.8903 20.4646 25.6744 20.5077C24.1534 20.8051 23.1362 21.1057 23.0287 21.138C22.4045 21.3255 22.0517 21.9784 22.2406 22.5979C22.4284 23.2163 23.0863 23.5686 23.7116 23.3812C23.7398 23.3725 24.9503 23.017 26.71 22.7046L26.7642 22.697C26.8675 22.6883 27.4015 22.5893 27.4254 22.585C29.1113 22.3232 31.1674 22.1357 33.153 22.2983C33.9031 22.3598 34.51 22.9298 34.6001 23.671C34.6392 23.9963 34.675 24.3389 34.7043 24.6837C34.7304 24.9983 34.7521 25.3344 34.7705 25.689C34.789 26.0434 34.6902 26.8191 33.8836 26.8568C33.1704 26.8903 30.0482 26.9063 23.7995 28.3921C19.0315 29.5256 14.7793 31.3205 13.8218 31.7008L13.8251 31.6954Z" fill="#8E8F91"/>
<path d="M123.628 27.4923C121.318 27.4923 119.723 25.516 119.723 22.696C119.723 19.8761 121.344 17.9521 123.681 17.9521C126.017 17.9521 127.558 19.8761 127.558 22.6422C127.558 25.4085 125.939 27.4911 123.628 27.4911V27.4923ZM123.043 30.1279C124.663 30.1279 125.885 29.3905 126.814 28.1247C126.947 27.9404 127.081 27.8609 127.213 27.8609C127.398 27.8609 127.558 28.0453 127.558 28.3884V29.0732C127.558 29.4687 127.824 29.7324 128.223 29.7324H130.029C130.454 29.7324 130.694 29.4956 130.694 29.0732V16.4237C130.694 16.0026 130.455 15.7645 130.029 15.7645H128.223C127.798 15.7645 127.558 16.0013 127.558 16.4237V16.6605C127.558 17.0035 127.426 17.2135 127.24 17.2135C127.107 17.2135 126.975 17.1341 126.815 16.9498C125.833 15.8426 124.478 15.342 122.938 15.342C119.193 15.342 116.51 18.3464 116.51 22.6678C116.51 26.9894 119.245 30.1256 123.043 30.1256V30.1279ZM51.7611 29.7324H53.6201C53.9916 29.7324 54.2845 29.4431 54.2845 29.0732V19.666C54.2845 19.1654 54.4973 18.9018 54.763 18.9018C54.9759 18.9018 55.1875 19.0605 55.3474 19.4548L58.9067 28.3884C59.2526 29.2844 59.8898 29.7324 60.8457 29.7324C61.8017 29.7324 62.4132 29.2844 62.7578 28.3884L66.3171 19.4292C66.477 19.0336 66.6886 18.8762 66.9015 18.8762C67.1671 18.8762 67.38 19.1399 67.38 19.6404V29.0744C67.38 29.4431 67.6717 29.7337 68.0444 29.7337H69.9034C70.2749 29.7337 70.5678 29.4444 70.5678 29.0744V13.5268C70.5678 12.0777 69.8505 11.2867 68.5489 11.2867C67.2472 11.2867 66.4241 11.8666 65.9467 13.0519L60.8471 25.9383L55.7215 13.0519C55.243 11.8666 54.4198 11.2867 53.1193 11.2867H53.0665C51.7919 11.2867 51.1016 12.0777 51.1016 13.5268V29.0744C51.1016 29.4431 51.3933 29.7337 51.766 29.7337L51.7611 29.7324ZM79.1431 27.4923C76.8326 27.4923 75.2393 25.516 75.2393 22.696C75.2393 19.8761 76.8597 17.9521 79.1961 17.9521C81.5327 17.9521 83.0738 19.8761 83.0738 22.6422C83.0738 25.4085 81.4534 27.4911 79.1431 27.4911V27.4923ZM78.5587 30.1279C80.1789 30.1279 81.4008 29.3905 82.3295 28.1247C82.4623 27.9404 82.5951 27.8609 82.7279 27.8609C82.9142 27.8609 83.0738 28.0453 83.0738 28.3884V29.0732C83.0738 29.4687 83.3394 29.7324 83.7386 29.7324H85.5444C85.9686 29.7324 86.2084 29.4956 86.2084 29.0732V16.4237C86.2084 16.0026 85.9704 15.7645 85.5444 15.7645H83.7386C83.3135 15.7645 83.0738 16.0013 83.0738 16.4237V16.6605C83.0738 17.0035 82.941 17.2135 82.7556 17.2135C82.6228 17.2135 82.49 17.1341 82.3304 16.9498C81.3482 15.8426 79.9935 15.342 78.4529 15.342C74.7078 15.342 72.0256 18.3464 72.0256 22.6678C72.0256 26.9894 74.7607 30.1256 78.5587 30.1256V30.1279ZM139.271 27.4923C136.96 27.4923 135.366 25.516 135.366 22.696C135.366 19.8761 136.986 17.9521 139.323 17.9521C141.66 17.9521 143.2 19.8761 143.2 22.6422C143.2 25.4085 141.581 27.4911 139.271 27.4911V27.4923ZM138.685 30.1279C140.306 30.1279 141.528 29.3905 142.457 28.1247C142.59 27.9404 142.723 27.8609 142.855 27.8609C143.041 27.8609 143.2 28.0453 143.2 28.3884V29.0732C143.2 29.4687 143.467 29.7324 143.865 29.7324H145.671C146.096 29.7324 146.336 29.4956 146.336 29.0732V10.6263C146.336 10.2051 146.097 9.96705 145.671 9.96705H143.865C143.441 9.96705 143.2 10.2039 143.2 10.6263V16.6605C143.2 17.0035 143.067 17.2135 142.883 17.2135C142.749 17.2135 142.616 17.1341 142.458 16.9498C141.475 15.8426 140.12 15.342 138.579 15.342C134.835 15.342 132.153 18.3464 132.153 22.6678C132.153 26.9894 134.888 30.1256 138.685 30.1256V30.1279ZM157.49 21.1944H151.86C151.488 21.1944 151.249 21.0101 151.249 20.7195C151.249 20.6402 151.249 20.5352 151.302 20.4303C151.913 18.9018 153.162 17.9789 154.782 17.9789C156.403 17.9789 157.517 18.9018 158.048 20.4559C158.075 20.5608 158.102 20.6402 158.102 20.7195C158.102 21.0089 157.861 21.1944 157.49 21.1944ZM155.046 30.1279C158.1 30.1279 160.332 28.5995 161.234 26.0176C161.262 25.9127 161.288 25.8334 161.288 25.754C161.288 25.4646 161.154 25.3059 160.783 25.3059H158.897C158.526 25.3059 158.34 25.4646 158.18 25.8064C157.596 26.8868 156.479 27.4935 155.073 27.4935C152.921 27.4935 151.461 26.1495 151.036 24.0937C150.93 23.6457 151.195 23.382 151.646 23.382H160.836C161.259 23.382 161.5 23.1452 161.5 22.7228V22.6434C161.5 18.1108 158.765 15.3445 154.781 15.3445C150.798 15.3445 147.796 18.1901 147.796 22.8021C147.796 27.0712 150.744 30.1279 155.046 30.1279ZM103.204 29.7324H105.011C105.435 29.7324 105.675 29.4956 105.675 29.0732V21.3518C105.675 19.5342 107.083 18.0582 109.128 18.0582C110.88 18.0582 111.916 19.0862 111.916 20.6402V29.0732C111.916 29.4944 112.154 29.7324 112.58 29.7324H114.386C114.811 29.7324 115.051 29.4956 115.051 29.0732V20.4827C115.051 17.3465 113.14 15.3445 110.35 15.3445C108.412 15.3445 107.429 16.0037 106.447 16.9779C106.261 17.1622 106.101 17.2415 105.968 17.2415C105.782 17.2415 105.676 17.0829 105.676 16.7667V16.3711C105.676 15.95 105.385 15.7657 104.986 15.7657H103.208C102.783 15.7657 102.543 16.0026 102.543 16.4249V29.0744C102.543 29.4956 102.782 29.7337 103.208 29.7337L103.204 29.7324ZM98.2656 29.7324H100.07C100.496 29.7324 100.734 29.4956 100.734 29.0732V16.4237C100.734 16.0026 100.496 15.7645 100.07 15.7645H98.2656C97.8405 15.7645 97.5998 16.0013 97.5998 16.4237V29.0732C97.5998 29.4944 97.8396 29.7324 98.2656 29.7324ZM99.1676 13.8955C100.337 13.8955 101.186 12.9994 101.186 11.8666C101.186 10.7337 100.337 9.86328 99.1676 9.86328C97.9991 9.86328 97.1497 10.7325 97.1497 11.8666C97.1497 13.0007 98.025 13.8955 99.1676 13.8955ZM88.6772 29.7324H90.483C90.9072 29.7324 91.147 29.4956 91.147 29.0732V22.5117C91.147 19.9028 92.3965 18.6382 95.7156 18.6382C96.0615 18.6382 96.2477 18.4014 96.2477 17.9789V16.2662C96.2477 15.8451 96.0615 15.607 95.7156 15.607C93.9625 15.607 92.8734 16.0026 91.8921 17.2672C91.7316 17.4784 91.573 17.5833 91.4402 17.5833C91.2548 17.5833 91.1487 17.4247 91.1487 17.1085V16.3711C91.1487 15.95 90.8573 15.7657 90.458 15.7657H88.679C88.2548 15.7657 88.015 16.0026 88.015 16.4249V29.0744C88.015 29.4956 88.2539 29.7337 88.679 29.7337L88.6772 29.7324Z" fill="#8E8F91"/>
</g>
</g>
<defs>
<clipPath id="clip0_368_2730">
<rect width="162" height="40" fill="white"/>
</clipPath>
</defs>
</svg>
