<svg width="191" height="40" viewBox="0 0 191 40" fill="none" xmlns="http://www.w3.org/2000/svg">
<mask id="mask0_368_2740" style="mask-type:luminance" maskUnits="userSpaceOnUse" x="0" y="7" width="38" height="26">
<path d="M37.4634 7.875H0V32.1221H37.4634V7.875Z" fill="white"/>
</mask>
<g mask="url(#mask0_368_2740)">
<path fill-rule="evenodd" clip-rule="evenodd" d="M18.8123 25.3247C18.9851 25.0755 19.0054 24.7467 18.8428 24.4876L8.97304 8.19507C8.83074 7.95591 8.57654 7.81641 8.29194 7.81641H1.35974C0.749842 7.81641 0.363642 8.46412 0.678742 8.9823L13.6487 30.6859C13.9333 31.174 14.655 31.2039 14.9802 30.7356L18.8123 25.3247ZM6.82834 30.347C7.14344 30.8651 6.75714 31.5228 6.14724 31.5228H6.13714H1.39024C0.95314 31.5228 0.597441 31.174 0.597441 30.7455V22.8932C0.597441 22.096 1.66464 21.817 2.07124 22.4946L6.82834 30.347Z" fill="#8E8F91"/>
<path d="M37.3922 30.5662C37.6971 31.0843 37.321 31.7321 36.7112 31.7321H29.8196C29.535 31.7321 29.2809 31.5826 29.1386 31.3434L15.7722 8.9823C15.4672 8.46412 15.8433 7.81641 16.4532 7.81641H23.3752C23.6598 7.81641 23.9139 7.96588 24.0562 8.20504L37.3922 30.5662Z" fill="#8E8F91"/>
</g>
<mask id="mask1_368_2740" style="mask-type:luminance" maskUnits="userSpaceOnUse" x="47" y="11" width="144" height="18">
<path d="M191 11.7578H47.4082V28.2374H191V11.7578Z" fill="white"/>
</mask>
<g mask="url(#mask1_368_2740)">
<path d="M47.0078 27.9346H49.7077V17.4417L55.9868 27.9346H58.2844L64.5638 17.4417V27.9346H67.2638V12.0664H64.6116L57.1459 24.5824L49.6599 12.0664H47.0078V27.9346Z" fill="#8E8F91"/>
<path d="M73.5488 27.9346H83.9998V25.3494H76.2481V21.2898H83.9998V18.7046H76.2481V14.6516H83.9998V12.0664H73.5488V27.9346Z" fill="#8E8F91"/>
<path d="M94.3338 27.9346H97.0338V14.6516H103.292V12.0664H88.0547V14.6516H94.3338V27.9346Z" fill="#8E8F91"/>
<path d="M119.439 27.9346H122.405L114.701 12.0664H112.069L104.365 27.9346H107.324L108.653 25.1708H118.082L119.433 27.9346H119.439ZM109.915 22.5856L113.372 15.445L116.828 22.5856H109.908H109.915Z" fill="#8E8F91"/>
<path d="M127.08 27.9346H129.78V22.9493H133.263C136.584 22.9493 138.977 20.6616 138.977 17.5079C138.977 14.3541 136.584 12.0664 133.263 12.0664H127.08V27.9346ZM129.78 20.3642V14.6516H133.263C135.016 14.6516 136.271 15.8549 136.271 17.5079C136.271 19.1608 135.016 20.3642 133.263 20.3642H129.78Z" fill="#8E8F91"/>
<path d="M144.082 27.9346H154.677V25.3494H146.782V12.0664H144.082V27.9346Z" fill="#8E8F91"/>
<path d="M159.422 27.9346H169.874V25.3494H162.123V21.2898H169.874V18.7046H162.123V14.6516H169.874V12.0664H159.422V27.9346Z" fill="#8E8F91"/>
<path d="M174.107 27.9346H177.592L182.568 22.0634L187.519 27.9346H191.002L184.293 20.0005L191.002 12.0664H187.545L182.568 17.9376L177.592 12.0664H174.107L180.816 20.0005L174.107 27.9346Z" fill="#8E8F91"/>
</g>
</svg>
