<svg width="147" height="40" viewBox="0 0 147 40" fill="none" xmlns="http://www.w3.org/2000/svg">
<g clip-path="url(#clip0_368_2759)">
<path d="M60.1826 11.3594C65.6286 11.3594 70.0438 15.5014 70.044 20.6104C70.044 25.7196 65.6287 29.8614 60.1826 29.8614C54.7368 29.8612 50.3223 25.7195 50.3223 20.6104C50.3225 15.5015 54.7369 11.3596 60.1826 11.3594ZM60.1826 14.4102C56.702 14.4105 53.8801 17.2322 53.8799 20.7129C53.8799 24.1938 56.7019 27.0154 60.1826 27.0157C63.6636 27.0157 66.4864 24.1939 66.4864 20.7129C66.4862 17.2321 63.6635 14.4102 60.1826 14.4102Z" fill="#8E8F91"/>
<path d="M114.062 11.3594C116.912 11.3594 119.478 12.4959 121.279 14.3096L118.906 16.6817C117.75 15.2943 116.009 14.4103 114.062 14.4102C110.581 14.4104 107.76 17.2323 107.759 20.7129C107.759 24.1938 110.581 27.0155 114.062 27.0157C116.032 27.0156 117.79 26.1116 118.946 24.6963L121.282 26.9092C119.481 28.7245 116.914 29.8614 114.062 29.8614C108.616 29.8612 104.201 25.7195 104.201 20.6104C104.201 15.5016 108.616 11.3596 114.062 11.3594Z" fill="#8E8F91"/>
<path d="M88.3418 11.668C91.4424 11.668 95.3565 13.6501 95.3565 18.0215C95.3562 21.5183 92.7808 23.342 91.4932 23.8164L95.6612 29.7627H92.002L88.3418 24.4258H83.5635V29.7627H80.209V11.668H88.3418ZM83.5635 21.7314H87.5791C88.5957 21.7314 91.9004 21.5786 91.9004 18.0205C91.9003 15.1742 89.0193 14.4967 87.5791 14.5137H83.5635V21.7314Z" fill="#8E8F91"/>
<path d="M138.968 11.4141C147.202 11.4143 146.998 18.937 146.998 19.4961V29.7129H143.643V25.087H134.291V29.7129H131.038V19.4961C130.936 16.8022 132.38 11.4142 138.968 11.4141ZM139.069 14.4102C135.003 14.4102 134.189 17.6974 134.291 19.3409V22.2891H143.694V19.3409C143.847 17.6974 143.135 14.4104 139.069 14.4102Z" fill="#8E8F91"/>
<path d="M19.9994 0C31.045 0 39.9999 8.95391 40 19.9995C40 31.045 31.045 39.9989 19.9994 39.9989C8.95403 39.9988 0 31.0449 0 19.9995C3.88524e-05 8.95402 8.95405 0.000177592 19.9994 0ZM21.3516 6.86553C18.5948 6.81147 15.9457 8.32452 14.2161 8.43263C12.8322 8.51911 12.4499 9.65822 12.4319 10.2168C12.3456 13.9789 17.225 18.4148 19.6755 20.1625C17.5133 20.7679 16.7203 23.0817 16.5942 24.1628C16.6122 24.0547 17.1786 23.7409 19.2974 23.3517C21.4158 22.9629 21.9095 24.2341 21.8916 24.9189C21.9781 27.9888 19.4418 28.829 18.1623 28.8651C15.3009 29.0271 12.1138 26.6696 12.1619 26.541C13.9457 22.5951 12.1619 19.9464 12.1619 20.0545C12.1598 20.1647 11.3492 21.1359 9.83773 22.0536C8.32423 22.9725 9.29707 24.2702 8.86465 23.8378C8.43213 23.4054 7.29716 23.2434 6.54048 23.6217C5.93525 23.9243 4.52318 24.1077 3.89231 24.1618C5.62201 27.3617 8.25262 28.0901 9.35171 28.0541C13.0706 33.1133 18.4324 34.0176 20.6485 33.8375C31.513 32.7564 33.8737 23.9823 33.5674 20.1625C34.4754 19.9034 35.675 20.5583 36.1617 20.9186C36.1615 17.2432 33.4226 15.0626 32.0533 14.432C31.1703 13.1526 29.0479 10.3031 27.621 9.1357C25.8374 7.67634 24.1081 6.91967 21.3516 6.86553Z" fill="#8E8F91"/>
<path d="M17.8372 30.4349C16.021 30.5214 12.9363 29.0295 11.6211 28.2728C12.2157 29.588 15.7831 32.1646 20.594 32.1646C26.3454 32.1646 28.792 28.579 29.2965 26.8133C29.729 25.3178 29.7073 21.3755 26.1614 17.5701C21.7291 12.8134 17.5669 11.8945 16.2696 11.8945C15.2318 11.8945 14.8283 12.2549 14.7562 12.4351C15.1886 14.381 18.3958 17.1738 19.9453 18.3269C20.9363 18.8674 23.0155 20.8565 23.4047 24.489C23.8912 29.0295 20.1074 30.3268 17.8372 30.4349Z" fill="#8E8F91"/>
<path d="M22.7565 10.2734C23.8808 10.2734 25.3871 11.3725 26.0538 11.895C26.5402 12.3816 26.5402 12.4536 26.5402 12.4896C26.342 12.5797 26.1078 12.868 24.5402 12.7599C23.4186 12.6825 22.378 11.7869 21.9997 11.3005C21.7835 10.9582 21.6321 10.2734 22.7565 10.2734Z" fill="#8E8F91"/>
</g>
<defs>
<clipPath id="clip0_368_2759">
<rect width="147" height="40" fill="white"/>
</clipPath>
</defs>
</svg>
