<svg width="130" height="40" viewBox="0 0 130 40" fill="none" xmlns="http://www.w3.org/2000/svg">
<g clip-path="url(#clip0_368_2810)">
<path d="M45.857 24.0677V20.9693H53.2678C54.401 20.9693 55.2853 20.6504 55.9197 20.0126C56.5538 19.3747 56.8713 18.5338 56.8713 17.4941C56.8713 16.4545 56.5538 15.5971 55.9197 14.9758C55.2853 14.3544 54.401 14.0438 53.2678 14.0438H43.4974V29.1604H40.2988V10.8398H53.2678C54.3341 10.8398 55.2852 10.9952 56.1241 11.3058C56.9609 11.6165 57.668 12.0535 58.2439 12.6169C58.8197 13.1802 59.2598 13.8636 59.5645 14.6692C59.8691 15.4749 60.0215 16.382 60.0215 17.3906C60.0215 18.3992 59.8691 19.2836 59.5645 20.0996C59.2598 20.9135 58.8197 21.6155 58.2439 22.2037C57.668 22.7919 56.9629 23.2496 56.1241 23.5768C55.2877 23.904 54.3341 24.0677 53.2678 24.0677H45.857Z" fill="#8E8F91"/>
<path d="M70.5159 29.1563V22.2016L60.7207 10.8398H65.0602L72.2436 19.2794L79.4501 10.8398H83.5621L73.7396 22.2016V29.1563H70.5159Z" fill="#8E8F91"/>
<path d="M94.6774 29.1563V14.0396H86.1895V10.8398H106.401V14.0396H97.9003V29.1563H94.6774Z" fill="#8E8F91"/>
<path d="M126.566 10.8398H129.777V29.1563H126.566V10.8398Z" fill="#8E8F91"/>
<path d="M112.713 29.1563V21.2282H124.659V18.3929H112.713V10.8398H109.502V29.1563H112.713Z" fill="#8E8F91"/>
<path d="M20.1478 16.5003C20.1478 18.7093 18.3434 20.5004 16.1181 20.5004V24.5005C20.5689 24.5005 24.1776 20.9183 24.1776 16.5003C24.1776 12.0823 20.5689 8.5 16.1181 8.5C14.6509 8.5 13.2731 8.88901 12.0883 9.57109C9.67893 10.9533 8.05859 13.5386 8.05859 16.5003V36.501L11.682 40.0975L12.0883 40.5011V16.5003C12.0883 14.2912 13.8927 12.5001 16.1181 12.5001C18.3434 12.5001 20.1478 14.2912 20.1478 16.5003Z" fill="#8E8F91"/>
<path d="M16.119 0.5C13.1828 0.5 10.4307 1.27976 8.0595 2.64209C6.54126 3.51231 5.18162 4.62135 4.02974 5.91854C1.52186 8.73904 0 12.4443 0 16.5005V28.5009L4.02974 32.501V16.5005C4.02974 12.9473 5.58624 9.75406 8.0595 7.55586C9.22229 6.52463 10.5874 5.71047 12.0893 5.18582C13.3487 4.74074 14.7064 4.50013 16.119 4.50013C22.7951 4.50013 28.2082 9.87345 28.2082 16.5005C28.2082 23.1276 22.7951 28.5009 16.119 28.5009V32.501C25.0223 32.501 32.2379 25.3366 32.2379 16.5005C32.2379 7.66439 25.0223 0.5 16.119 0.5Z" fill="#8E8F91"/>
</g>
<defs>
<clipPath id="clip0_368_2810">
<rect width="130" height="40" fill="white"/>
</clipPath>
</defs>
</svg>
