<svg width="162" height="40" viewBox="0 0 162 40" fill="none" xmlns="http://www.w3.org/2000/svg">
<g clip-path="url(#clip0_368_2787)">
<path d="M17.3779 0.350895C17.5577 0.187995 19.1553 1.4049 19.4062 1.6146C23.9619 5.43809 26.0603 11.1136 25.6484 17.0267L25.6475 17.0287C26.6717 15.9184 28.0854 14.9183 29.4297 16.184C28.31 16.7363 28.2497 18.6319 28.3096 19.7591C28.5137 23.6387 29.2813 26.2827 28.3545 30.3177C26.4015 38.8071 18.1611 40.633 10.5029 39.2494C4.2864 38.1259 0.3876 33.8992 0 27.5404L2.5205 31.4632C2.1835 28.3889 1.582 25.6682 2.9824 22.7455C4.4617 19.6578 7.3142 18.7835 9.4619 16.4691C11.7875 13.9637 13.5113 9.42799 10.5098 6.79719C12.7773 6.89269 14.5227 8.2545 15.2773 10.3685C15.5113 11.0237 15.8333 13.7006 15.9775 13.8041C16.3145 14.0399 16.6985 12.7942 16.7773 12.5726C18.0562 8.96439 18.2729 4.05839 17.3779 0.350895ZM21.2285 14.5082L21.2275 14.5062C20.9785 15.2571 20.9729 16.0273 20.707 16.7875C20.2126 18.1917 18.7619 19.8957 17.6572 20.8861C17.4287 21.0905 16.5014 21.8506 16.0186 22.1918C15.9003 22.2753 15.8096 22.3345 15.7617 22.3529C15.498 22.4539 15.5817 22.2711 15.5576 22.142C15.2319 20.3843 14.5359 18.8895 12.6123 18.5687L12.6113 18.5697C12.638 19.0829 12.598 19.5659 12.5059 20.0248C11.708 23.9528 6.9543 25.942 6.2275 30.2279C6.2006 30.3804 6.1793 30.5356 6.1641 30.6937C5.6679 35.8242 8.0871 38.8466 13.2344 39.1781C14.0983 39.2335 14.907 39.2421 15.6631 39.2093C15.6977 39.2078 15.7322 39.2052 15.7666 39.2035C16.1057 39.1869 16.434 39.1628 16.752 39.1293C16.9835 39.1049 17.2092 39.0745 17.4297 39.0414C17.6951 39.0014 17.9524 38.955 18.2021 38.9027C24.658 37.5533 25.9659 32.1519 25.001 25.975C24.977 25.8215 24.9516 25.6675 24.9248 25.5131C24.5505 23.352 23.9096 21.1075 23.124 18.9173C22.5885 17.4231 21.9448 15.9246 21.2295 14.5052L21.2285 14.5082Z" fill="#8E8F91"/>
<path d="M12.4705 30.766C12.272 32.5636 14.6875 33.3182 15.341 31.603C15.8166 30.3522 15.2998 29.2156 15.135 27.9648C19.8255 28.6108 21.3422 38.121 16.03 38.7408C14.9122 38.8719 13.2214 38.8026 12.2327 38.224C9.62806 36.7017 11.068 32.6628 12.4705 30.766Z" fill="#8E8F91"/>
<path d="M155.918 30.9144C154.252 30.9144 152.817 30.6033 151.613 29.9811C150.409 29.3589 149.475 28.4757 148.813 27.3316C148.171 26.1876 147.85 24.8327 147.85 23.2671C147.85 21.7417 148.161 20.4069 148.783 19.2629C149.425 18.1188 150.298 17.2256 151.402 16.5833C152.526 15.921 153.801 15.5898 155.226 15.5898C156.27 15.5898 157.203 15.7604 158.026 16.1016C158.869 16.4428 159.581 16.9346 160.164 17.5769C160.766 18.2191 161.217 19.0019 161.518 19.9252C161.839 20.8285 162 21.8521 162 22.9962C162 23.3575 161.87 23.6385 161.609 23.8392C161.368 24.0198 161.017 24.1101 160.555 24.1101H150.89V21.9424H159.351L158.869 22.394C158.869 21.4707 158.728 20.698 158.447 20.0758C158.186 19.4535 157.795 18.9819 157.273 18.6607C156.771 18.3195 156.139 18.1489 155.376 18.1489C154.533 18.1489 153.811 18.3496 153.209 18.751C152.627 19.1324 152.175 19.6844 151.854 20.4069C151.553 21.1095 151.402 21.9525 151.402 22.936V23.1467C151.402 24.7926 151.784 26.027 152.546 26.8499C153.329 27.6528 154.473 28.0542 155.979 28.0542C156.5 28.0542 157.083 27.994 157.725 27.8736C158.387 27.7331 159.009 27.5022 159.591 27.1811C160.013 26.9402 160.384 26.8399 160.705 26.88C161.027 26.9001 161.277 27.0105 161.458 27.2112C161.659 27.4119 161.779 27.6628 161.819 27.9639C161.86 28.2449 161.799 28.5359 161.639 28.837C161.498 29.1381 161.247 29.399 160.886 29.6198C160.184 30.0614 159.371 30.3925 158.447 30.6133C157.544 30.814 156.701 30.9144 155.918 30.9144Z" fill="#8E8F91"/>
<path d="M135.392 30.6131C135.011 30.6131 134.689 30.5228 134.428 30.3421C134.188 30.1414 134.027 29.8905 133.947 29.5894C133.866 29.2884 133.866 28.9672 133.947 28.626C134.047 28.2647 134.238 27.9235 134.519 27.6024L142.317 17.8175V18.7207H135.211C134.75 18.7207 134.388 18.6003 134.127 18.3594C133.887 18.0985 133.766 17.7472 133.766 17.3057C133.766 16.844 133.887 16.4928 134.127 16.2519C134.388 16.011 134.75 15.8906 135.211 15.8906H144.123C144.565 15.8906 144.926 15.991 145.207 16.1917C145.488 16.3723 145.669 16.6132 145.749 16.9143C145.849 17.2153 145.859 17.5365 145.779 17.8777C145.699 18.2189 145.518 18.5401 145.237 18.8411L137.289 28.7765V27.783H144.816C145.779 27.783 146.261 28.2547 146.261 29.1981C146.261 29.6396 146.13 29.9909 145.869 30.2518C145.628 30.4927 145.277 30.6131 144.816 30.6131H135.392Z" fill="#8E8F91"/>
<path d="M122.66 30.9144C121.596 30.9144 120.643 30.7137 119.8 30.3123C118.977 29.8908 118.325 29.3288 117.843 28.6263C117.381 27.9237 117.15 27.1309 117.15 26.2478C117.15 25.1639 117.431 24.3109 117.993 23.6886C118.556 23.0464 119.469 22.5847 120.733 22.3037C121.998 22.0227 123.694 21.8822 125.821 21.8822H127.327V24.0499H125.852C124.607 24.0499 123.614 24.1102 122.871 24.2306C122.128 24.351 121.596 24.5618 121.275 24.8628C120.974 25.1438 120.824 25.5453 120.824 26.0671C120.824 26.7295 121.054 27.2714 121.516 27.6929C121.978 28.1144 122.62 28.3252 123.443 28.3252C124.105 28.3252 124.687 28.1746 125.189 27.8736C125.711 27.5524 126.122 27.1209 126.424 26.579C126.725 26.037 126.875 25.4148 126.875 24.7123V21.25C126.875 20.2464 126.654 19.5238 126.213 19.0822C125.771 18.6407 125.029 18.4199 123.985 18.4199C123.403 18.4199 122.771 18.4901 122.088 18.6306C121.426 18.7711 120.723 19.012 119.981 19.3532C119.599 19.5338 119.258 19.584 118.957 19.5037C118.676 19.4234 118.455 19.2629 118.295 19.022C118.134 18.7611 118.054 18.4801 118.054 18.179C118.054 17.8779 118.134 17.5869 118.295 17.3059C118.455 17.0048 118.726 16.784 119.107 16.6435C120.031 16.2622 120.914 15.9912 121.757 15.8306C122.62 15.6701 123.403 15.5898 124.105 15.5898C125.55 15.5898 126.735 15.8106 127.658 16.2521C128.601 16.6937 129.304 17.3661 129.765 18.2693C130.227 19.1525 130.458 20.2966 130.458 21.7016V28.9273C130.458 29.5495 130.307 30.0313 130.006 30.3725C129.705 30.6936 129.274 30.8542 128.712 30.8542C128.15 30.8542 127.708 30.6936 127.387 30.3725C127.086 30.0313 126.935 29.5495 126.935 28.9273V27.4822H127.176C127.036 28.1847 126.755 28.7969 126.333 29.3187C125.932 29.8205 125.42 30.2119 124.798 30.4929C124.176 30.7739 123.463 30.9144 122.66 30.9144Z" fill="#8E8F91"/>
<path d="M113.018 30.9121C111.352 30.9121 110.098 30.4404 109.255 29.4971C108.412 28.5336 107.99 27.1286 107.99 25.282V11.0413C107.99 10.4191 108.151 9.94743 108.472 9.62623C108.793 9.30513 109.255 9.14453 109.857 9.14453C110.459 9.14453 110.921 9.30513 111.242 9.62623C111.583 9.94743 111.754 10.4191 111.754 11.0413V25.1014C111.754 26.0247 111.944 26.7071 112.326 27.1487C112.727 27.5903 113.289 27.8111 114.012 27.8111C114.172 27.8111 114.323 27.8111 114.463 27.8111C114.604 27.791 114.744 27.7709 114.885 27.7508C115.166 27.7107 115.357 27.791 115.457 27.9917C115.557 28.1724 115.608 28.5537 115.608 29.1358C115.608 29.6376 115.507 30.029 115.306 30.31C115.106 30.591 114.775 30.7616 114.313 30.8218C114.112 30.8419 113.901 30.8619 113.681 30.882C113.46 30.9021 113.239 30.9121 113.018 30.9121Z" fill="#8E8F91"/>
<path d="M89.4611 30.6124C88.7991 30.6124 88.2871 30.4418 87.9261 30.1006C87.5851 29.7393 87.4141 29.2274 87.4141 28.5651V11.434C87.4141 10.7716 87.5851 10.2699 87.9261 9.92862C88.2871 9.56732 88.7991 9.38672 89.4611 9.38672H96.6871C98.1731 9.38672 99.4371 9.60752 100.481 10.0491C101.524 10.4906 102.317 11.1229 102.859 11.9458C103.421 12.7688 103.702 13.7523 103.702 14.8963C103.702 16.1809 103.331 17.2648 102.588 18.1479C101.846 19.0311 100.832 19.6232 99.5471 19.9243V19.4727C101.033 19.6934 102.187 20.2555 103.01 21.1587C103.833 22.0619 104.244 23.2361 104.244 24.6812C104.244 26.568 103.602 28.0332 102.317 29.0769C101.053 30.1005 99.2871 30.6124 97.0181 30.6124H89.4611ZM91.1171 27.692H96.5371C97.9021 27.692 98.9051 27.431 99.5471 26.9092C100.19 26.3672 100.511 25.5644 100.511 24.5006C100.511 23.4167 100.19 22.6139 99.5471 22.092C98.9051 21.5701 97.9021 21.3092 96.5371 21.3092H91.1171V27.692ZM91.1171 18.3888H96.0251C97.3501 18.3888 98.3331 18.1379 98.9751 17.6361C99.6381 17.1143 99.9691 16.3515 99.9691 15.348C99.9691 14.3444 99.6381 13.5917 98.9751 13.0899C98.3331 12.568 97.3501 12.3071 96.0251 12.3071H91.1171V18.3888Z" fill="#8E8F91"/>
<path d="M82.2589 30.9121C80.5929 30.9121 79.3379 30.4404 78.4949 29.4971C77.652 28.5336 77.2305 27.1286 77.2305 25.282V11.0413C77.2305 10.4191 77.3911 9.94743 77.7122 9.62623C78.0329 9.30513 78.4949 9.14453 79.0969 9.14453C79.6989 9.14453 80.1609 9.30513 80.4819 9.62623C80.8229 9.94743 80.9939 10.4191 80.9939 11.0413V25.1014C80.9939 26.0247 81.1849 26.7071 81.5659 27.1487C81.9679 27.5903 82.5299 27.8111 83.2519 27.8111C83.4129 27.8111 83.5629 27.8111 83.7039 27.8111C83.8439 27.791 83.9849 27.7709 84.1249 27.7508C84.4059 27.7107 84.5969 27.791 84.6969 27.9917C84.7979 28.1724 84.8479 28.5537 84.8479 29.1358C84.8479 29.6376 84.7469 30.029 84.5469 30.31C84.3459 30.591 84.0149 30.7616 83.5529 30.8218C83.3519 30.8419 83.1419 30.8619 82.9209 30.882C82.6999 30.9021 82.4789 30.9121 82.2589 30.9121Z" fill="#8E8F91"/>
<path d="M66.3881 30.9144C64.8626 30.9144 63.5379 30.6033 62.4139 29.9811C61.2899 29.3589 60.4168 28.4757 59.7946 27.3316C59.1724 26.1675 58.8613 24.8026 58.8613 23.237C58.8613 22.0528 59.0319 20.9991 59.3731 20.0758C59.7344 19.1324 60.2462 18.3295 60.9086 17.6672C61.5709 16.9847 62.3637 16.4729 63.287 16.1317C64.2103 15.7704 65.244 15.5898 66.3881 15.5898C67.9135 15.5898 69.2382 15.9009 70.3623 16.5231C71.4863 17.1453 72.3594 18.0285 72.9816 19.1725C73.6038 20.3166 73.9149 21.6715 73.9149 23.237C73.9149 24.4213 73.7343 25.4851 73.373 26.4284C73.0318 27.3718 72.53 28.1847 71.8676 28.8671C71.2053 29.5295 70.4124 30.0413 69.4891 30.4026C68.5658 30.7438 67.5322 30.9144 66.3881 30.9144ZM66.3881 28.0542C67.1307 28.0542 67.7831 27.8736 68.3451 27.5123C68.9071 27.151 69.3386 26.6191 69.6397 25.9166C69.9608 25.194 70.1214 24.3008 70.1214 23.237C70.1214 21.6313 69.7802 20.4371 69.0977 19.6543C68.4153 18.8514 67.5121 18.45 66.3881 18.45C65.6454 18.45 64.9931 18.6306 64.4311 18.9919C63.8691 19.3331 63.4275 19.865 63.1064 20.5876C62.8053 21.2901 62.6548 22.1732 62.6548 23.237C62.6548 24.8227 62.996 26.027 63.6784 26.8499C64.3609 27.6528 65.2641 28.0542 66.3881 28.0542Z" fill="#8E8F91"/>
<path d="M48.149 30.9137C47.2659 30.9137 46.3827 30.8434 45.4996 30.7029C44.6164 30.5825 43.7834 30.3918 43.0006 30.1309C42.2179 29.8499 41.5153 29.5087 40.8931 29.1072C40.5318 28.8664 40.2809 28.5753 40.1404 28.2341C39.9999 27.8929 39.9498 27.5617 39.9899 27.2406C40.0501 26.8994 40.1806 26.6083 40.3813 26.3675C40.6021 26.1065 40.8731 25.946 41.1942 25.8858C41.5153 25.8255 41.8666 25.9159 42.248 26.1567C43.1311 26.6786 44.0644 27.0599 45.0479 27.3008C46.0314 27.5417 47.0651 27.6621 48.149 27.6621C49.7347 27.6621 50.8888 27.4012 51.6113 26.8793C52.3339 26.3374 52.6952 25.6449 52.6952 24.8019C52.6952 24.0994 52.4343 23.5474 51.9124 23.146C51.4106 22.7446 50.5375 22.4134 49.2931 22.1525L45.9813 21.46C44.0745 21.0586 42.6494 20.3862 41.706 19.4428C40.7827 18.4794 40.3211 17.2148 40.3211 15.6493C40.3211 14.6658 40.5218 13.7726 40.9232 12.9697C41.3247 12.1669 41.8867 11.4744 42.6092 10.8923C43.3519 10.3102 44.225 9.86874 45.2286 9.56764C46.2522 9.24644 47.3762 9.08594 48.6006 9.08594C49.8049 9.08594 50.949 9.23644 52.0328 9.53754C53.1167 9.83864 54.0902 10.2801 54.9533 10.8622C55.2744 11.083 55.4852 11.354 55.5855 11.6751C55.7059 11.9962 55.736 12.3174 55.6758 12.6385C55.6156 12.9396 55.4751 13.2005 55.2543 13.4213C55.0335 13.6421 54.7525 13.7726 54.4113 13.8127C54.0902 13.8529 53.7189 13.7525 53.2974 13.5116C52.5547 13.0901 51.802 12.7891 51.0393 12.6084C50.2766 12.4278 49.4537 12.3375 48.5705 12.3375C47.6472 12.3375 46.8544 12.4679 46.192 12.7289C45.5297 12.9898 45.0178 13.3611 44.6565 13.8428C44.3153 14.3045 44.1447 14.8564 44.1447 15.4987C44.1447 16.2213 44.3856 16.8034 44.8673 17.245C45.349 17.6665 46.172 17.9976 47.3361 18.2385L50.6178 18.931C52.6049 19.3525 54.0801 20.0148 55.0436 20.9181C56.0271 21.8213 56.5188 23.0256 56.5188 24.5309C56.5188 25.4944 56.3181 26.3675 55.9167 27.1503C55.5353 27.9331 54.9733 28.6055 54.2307 29.1675C53.5081 29.7295 52.635 30.161 51.6113 30.4621C50.5877 30.7631 49.4336 30.9137 48.149 30.9137Z" fill="#8E8F91"/>
</g>
<defs>
<clipPath id="clip0_368_2787">
<rect width="162" height="40" fill="white"/>
</clipPath>
</defs>
</svg>
